<svg xmlns="http://www.w3.org/2000/svg" viewBox="0 0 16 16" fill="none" shape-rendering="crispEdges" width="512" height="512"><metadata xmlns:rdf="http://www.w3.org/1999/02/22-rdf-syntax-ns#" xmlns:xsi="http://www.w3.org/2001/XMLSchema-instance" xmlns:dc="http://purl.org/dc/elements/1.1/" xmlns:dcterms="http://purl.org/dc/terms/"><rdf:RDF><rdf:Description><dc:title>Pixel Art</dc:title><dc:creator>DiceBear</dc:creator><dc:source xsi:type="dcterms:URI">https://www.figma.com/community/file/1198754108850888330</dc:source><dcterms:license xsi:type="dcterms:URI">https://creativecommons.org/publicdomain/zero/1.0/</dcterms:license><dc:rights>„Pixel Art” (https://www.figma.com/community/file/1198754108850888330) by „DiceBear”, licensed under „CC0 1.0” (https://creativecommons.org/publicdomain/zero/1.0/)</dc:rights></rdf:Description></rdf:RDF></metadata><mask id="viewboxMask"><rect width="16" height="16" rx="0" ry="0" x="0" y="0" fill="#fff" /></mask><g mask="url(#viewboxMask)"><rect fill="#2D3436" width="16" height="16" x="0" y="0" /><path d="M4 2h8v1h1v3h1v2h-1v3h-1v1H9v1h4v1h1v2H2v-2h1v-1h4v-1H4v-1H3V8H2V6h1V3h1V2Z" fill="#b68655"/><path d="M4 2h8v1h1v3h1v2h-1v3h-1v1H4v-1H3V8H2V6h1V3h1V2Z" fill="#fff" fill-opacity=".1"/><path d="M5 13H4v3h3v-1H6v-1H5v-1ZM12 13h-1v1h-1v1H9v1h3v-3Z" fill="#ff6f69"/><path fill="#fff" d="M4 5h3v2H4zM9 5h3v2H9z"/><path fill="#5b7c8b" d="M9 6h1v1H9zM4 6h1v1H4z"/><path fill="#fff" fill-opacity=".3" d="M4 5h3v3H4zM9 5h3v3H9z"/><path fill="#5f705c" d="M3 5h1v1H3zM7 5h2v1H7zM12 5h1v1h-1z"/><path d="M9 9v1H8v1h2V9H9Z" fill="#e35d6a"/><path d="M12 1H5v1H4v1H3v1H2v2h2V5h1V4h1V3h5v1h1v1h1v1h1V3h-1V2h-1V1ZM13 8h1v4h-2v-1h1V8ZM2 8h1v3h1v1H2V8Z" fill="#bd1700"/></g></svg>