<svg xmlns="http://www.w3.org/2000/svg" viewBox="0 0 280 280" fill="none" shape-rendering="auto" width="512" height="512"><metadata xmlns:rdf="http://www.w3.org/1999/02/22-rdf-syntax-ns#" xmlns:xsi="http://www.w3.org/2001/XMLSchema-instance" xmlns:dc="http://purl.org/dc/elements/1.1/" xmlns:dcterms="http://purl.org/dc/terms/"><rdf:RDF><rdf:Description><dc:title>Avataaars</dc:title><dc:creator>Pablo Stanley</dc:creator><dc:source xsi:type="dcterms:URI">https://avataaars.com/</dc:source><dcterms:license xsi:type="dcterms:URI">https://avataaars.com/</dcterms:license><dc:rights>Remix of „Avataaars” (https://avataaars.com/) by „Pablo Stanley”, licensed under „Free for personal and commercial use” (https://avataaars.com/)</dc:rights></rdf:Description></rdf:RDF></metadata><mask id="viewboxMask"><rect width="280" height="280" rx="0" ry="0" x="0" y="0" fill="#fff" /></mask><g mask="url(#viewboxMask)"><rect fill="#3498DB" width="280" height="280" x="0" y="0" /><g transform="translate(8)"><path d="M132 36a56 56 0 0 0-56 56v6.17A12 12 0 0 0 66 110v14a12 12 0 0 0 10.3 11.88 56.04 56.04 0 0 0 31.7 44.73v18.4h-4a72 72 0 0 0-72 72v9h200v-9a72 72 0 0 0-72-72h-4v-18.39a56.04 56.04 0 0 0 31.7-44.73A12 12 0 0 0 198 124v-14a12 12 0 0 0-10-11.83V92a56 56 0 0 0-56-56Z" fill="#ffdbb4"/><path d="M108 180.61v8a55.79 55.79 0 0 0 24 5.39c8.59 0 16.73-1.93 24-5.39v-8a55.79 55.79 0 0 1-24 5.39 55.79 55.79 0 0 1-24-5.39Z" fill="#000" fill-opacity=".1"/><g transform="translate(0 170)"><path d="M196 38.63V110H68V38.63a71.52 71.52 0 0 1 26-8.94v44.3h76V29.69a71.52 71.52 0 0 1 26 8.94Z" fill="#5199e4"/><path d="M86 83a5 5 0 1 1-10 0 5 5 0 0 1 10 0ZM188 83a5 5 0 1 1-10 0 5 5 0 0 1 10 0Z" fill="#F4F4F4"/></g><g transform="translate(78 134)"><path fill-rule="evenodd" clip-rule="evenodd" d="M40.06 27.72C40.7 20.7 46.7 16 54 16c7.34 0 13.36 4.75 13.95 11.85.03.38-.87.67-1.32.45-5.54-2.77-9.75-4.16-12.63-4.16-2.84 0-7 1.36-12.45 4.07-.5.25-1.53-.07-1.5-.49Z" fill="#000" fill-opacity=".7"/></g><g transform="translate(104 122)"><path fill-rule="evenodd" clip-rule="evenodd" d="M16 8c0 4.42 5.37 8 12 8s12-3.58 12-8" fill="#000" fill-opacity=".16"/></g><g transform="translate(76 90)"><g fill="#000" fill-opacity=".6"><path d="M36 22a6 6 0 1 1-12 0 6 6 0 0 1 12 0Z"/><path fill-rule="evenodd" clip-rule="evenodd" d="M70.6 24.96c1.59-3.92 5.55-6.86 10.37-7.2 4.8-.33 9.12 2 11.24 5.64.63 1.09-.1 2.06-.93 1.43-2.6-1.93-6.15-3-10-2.73A15.13 15.13 0 0 0 71.95 26c-.84.78-1.81.1-1.35-1.04Z"/></g></g><g transform="translate(76 82)"><path d="M38.03 5.6c-1.48 8.38-14.1 14.17-23.24 10.42a2.04 2.04 0 0 0-2.64 1c-.43.97.04 2.1 1.05 2.5 11.45 4.7 26.84-2.37 28.76-13.3a1.92 1.92 0 0 0-1.64-2.2 2 2 0 0 0-2.3 1.57ZM73.97 5.6c1.48 8.38 14.1 14.17 23.24 10.42 1.02-.41 2.2.03 2.63 1 .43.97-.04 2.1-1.05 2.5-11.44 4.7-26.84-2.37-28.76-13.3a1.92 1.92 0 0 1 1.64-2.2 2 2 0 0 1 2.3 1.57Z" fill="#000" fill-opacity=".6"/></g><g transform="translate(-1)"><path d="M70 97c0 4 .92 5.07 6 5 3.25-.05 3.44-6 3.65-12.59.14-4.37.29-9.03 1.35-12.41.62-4.43-1.82-3.17-3-1-3.96 4.78-8 15.34-8 21ZM196 97c0 4-.92 5.07-6 5-3.25-.05-3.44-6-3.65-12.59-.14-4.37-.29-9.03-1.35-12.41-.62-4.43 1.82-3.17 3-1 3.96 4.78 8 15.34 8 21Z" fill="#e8e1e1"/></g><g transform="translate(49 72)"><path d="M84 66.94c-2.5-3.34-12.27-4.75-19.28-3.48-9.65 1.76-13.74 12.3-12.5 14.22.77 1.2 2.48.8 4.26.38.8-.2 1.64-.38 2.4-.43 1.48-.09 3.34.22 5.44.57 4.98.82 11.37 1.88 17.63-1.51A6.04 6.04 0 0 0 84 74.84a6.04 6.04 0 0 0 2.05 1.85c6.25 3.39 12.64 2.33 17.62 1.5 2.1-.34 3.96-.65 5.45-.56.76.05 1.59.24 2.4.43 1.78.41 3.49.81 4.26-.38 1.24-1.91-2.85-12.46-12.5-14.22-7.02-1.27-16.78.14-19.28 3.48Z" fill="#ecdcbf"/></g><g transform="translate(62 42)"></g></g></g></svg>